<svg xmlns="http://www.w3.org/2000/svg" width="198.96" height="536.64" viewBox="0 0 198.96 536.64"><defs><style>.a,.b,.g{fill:#fff;}.b,.c,.d,.e,.f{stroke:#000;}.b,.c,.d,.g{stroke-miterlimit:10;}.c,.d,.e,.f{fill:none;}.d,.f{stroke-linecap:round;}.e,.f{stroke-linejoin:round;}.g{stroke:#231f20;}</style></defs><polygon class="a" points="34.24 26.37 53.24 27.82 152.72 53.87 152.72 152.59 170.37 162.72 194.62 194.09 198.66 218.05 198.71 517.16 165.22 536.36 123.88 533.76 69.99 520.2 29 496.45 4.64 465.03 0.6 441.28 0.6 45.89 34.24 26.37"/><line class="b" x1="45.49" y1="110.48" x2="49.74" y2="107.98"/><line class="b" x1="45.49" y1="206.71" x2="45.49" y2="110.48"/><line class="b" x1="45.49" y1="206.71" x2="49.74" y2="204.21"/><line class="b" x1="49.74" y1="107.98" x2="49.74" y2="204.21"/><path class="b" d="M46.23,56.77C24.38,71.7,25.86,94.13,49.74,108"/><line class="b" x1="69.74" y1="220.7" x2="45.49" y2="206.71"/><line class="b" x1="123.72" y1="234.7" x2="69.74" y2="220.7"/><line class="b" x1="164.97" y1="237.2" x2="123.72" y2="234.7"/><line class="b" x1="198.46" y1="217.7" x2="164.97" y2="237.2"/><line class="b" x1="194.21" y1="193.96" x2="198.46" y2="217.7"/><line class="b" x1="170.21" y1="162.72" x2="194.21" y2="193.96"/><line class="b" x1="152.47" y1="152.47" x2="170.21" y2="162.72"/><line class="b" x1="28.74" y1="100.73" x2="45.49" y2="110.48"/><line class="b" x1="28.74" y1="496.15" x2="28.74" y2="100.73"/><line class="b" x1="69.74" y1="519.89" x2="28.74" y2="496.15"/><line class="b" x1="69.74" y1="519.89" x2="69.74" y2="220.7"/><line class="b" x1="33.99" y1="26.24" x2="52.99" y2="27.49"/><line class="b" x1="33.99" y1="26.24" x2="0.5" y2="45.74"/><line class="b" x1="0.5" y1="45.74" x2="4.75" y2="69.49"/><line class="b" x1="4.75" y1="69.49" x2="28.74" y2="100.73"/><line class="b" x1="198.46" y1="516.89" x2="198.46" y2="217.7"/><line class="b" x1="164.97" y1="536.14" x2="164.97" y2="237.2"/><line class="b" x1="198.46" y1="516.89" x2="164.97" y2="536.14"/><line class="b" x1="123.72" y1="533.64" x2="123.72" y2="234.7"/><line class="b" x1="123.72" y1="533.64" x2="164.97" y2="536.14"/><line class="b" x1="69.74" y1="519.89" x2="123.72" y2="533.64"/><line class="b" x1="28.74" y1="496.15" x2="4.75" y2="464.9"/><line class="b" x1="4.75" y1="464.9" x2="4.75" y2="69.49"/><line class="b" x1="4.75" y1="464.9" x2="0.5" y2="441.16"/><line class="b" x1="0.5" y1="441.16" x2="0.5" y2="45.74"/><path class="b" d="M65.39,193.46c7.73,6.42,20.42,10.25,34,10.25s26.24-3.83,34-10.25"/><path class="b" d="M46.24,53.61a53.12,53.12,0,0,1,106.23,0"/><polyline class="b" points="152.47 152.72 152.47 153.72 152.47 154.47 152.47 155.47 152.47 156.22 152.22 157.22 152.22 157.97 152.22 158.97 151.97 159.72 151.97 160.47 151.72 161.47 151.72 162.22 151.47 163.22 151.22 163.97 151.22 164.72 150.97 165.47 150.72 166.47 150.47 167.22 150.22 167.97 149.97 168.72 149.72 169.47 149.47 170.21 149.22 171.21 148.97 171.96 148.72 172.46 148.47 173.21 147.97 173.96 147.72 174.71 147.47 175.46 146.97 176.21 146.72 176.71 146.47 177.46 145.97 178.21 145.72 178.71 145.22 179.46 144.97 179.96 144.47 180.71 144.22 181.21 143.72 181.96 143.47 182.46 142.97 182.96 142.72 183.46 142.22 184.21 141.97 184.71 141.47 185.21 140.97 185.71 140.72 186.21 140.22 186.71 139.97 187.21 139.47 187.71 138.97 188.21 138.72 188.46 138.22 188.96 137.72 189.46 137.47 189.96 136.97 190.21 136.47 190.71 136.22 191.21 135.72 191.46 135.22 191.96 134.97 192.21 134.47 192.71 134.22 192.96 133.72 193.21 133.22 193.71"/><polyline class="b" points="49.74 171.96 50.24 172.96 50.49 173.96 50.99 174.71 51.49 175.71 51.74 176.46 52.24 177.46 52.74 178.21 53.24 178.96 53.49 179.96 53.99 180.71 54.49 181.46 54.99 182.21 55.49 182.96 55.99 183.71 56.49 184.21 56.99 184.96 57.49 185.71 57.99 186.21 58.49 186.96 58.99 187.46 59.74 188.21 60.24 188.71 60.74 189.21 61.24 189.71 61.74 190.21 62.24 190.96 62.74 191.46 63.24 191.96 63.74 192.21 64.24 192.71 64.74 193.21 65.49 193.71"/><line class="b" x1="46.24" y1="53.61" x2="46.24" y2="105.78"/><line class="c" x1="152.47" y1="53.74" x2="152.47" y2="152.72"/><path class="c" d="M87.59,159.12C70,162.55,59.35,172.83,62.37,183.39s18.82,18.32,37.36,18.32,34.35-7.75,37.36-18.32-7.66-20.84-25.22-24.27"/><polyline class="c" points="134.85 181.21 134.85 181.46 134.85 181.71 134.85 181.96 134.85 182.21 134.85 182.71 134.85 182.96 134.85 183.21 134.85 183.46 134.85 183.96 134.85 184.21 134.85 184.46 134.85 184.71 134.85 184.96 134.6 185.46 134.6 185.71 134.6 185.96 134.35 186.21 134.35 186.71 134.35 186.96 134.1 187.21 134.1 187.46 133.85 187.71 133.85 187.96 133.6 188.46 133.6 188.71 133.35 188.96 133.35 189.21 133.1 189.46 132.85 189.96 132.85 190.21 132.6 190.46 132.35 190.71"/><polyline class="c" points="64.61 188.46 64.61 187.96 64.36 187.71 64.36 187.46 64.36 186.96 64.11 186.71 64.11 186.46 64.11 185.96 64.11 185.71 64.11 185.46 64.11 184.96 64.11 184.71 64.11 184.46 64.11 183.96 64.11 183.71 64.11 183.46 64.11 182.96"/><polyline class="c" points="134.85 184.96 134.85 185.21 134.85 185.71 134.85 185.96 134.85 186.21 134.85 186.71 134.85 186.96 134.85 187.21 134.85 187.46"/><polyline class="c" points="64.11 187.46 64.11 187.21 64.11 186.96"/><polyline class="c" points="64.11 181.46 64.11 181.71 64.11 181.96 64.11 182.21 64.11 182.46 64.11 182.71 64.11 182.96 64.11 183.21 64.11 183.46 64.36 183.71 64.36 183.96 64.36 184.21 64.36 184.46 64.61 184.71 64.61 184.96 64.61 185.21 64.86 185.46 64.86 185.71 64.86 185.96 65.11 186.21 65.11 186.46 65.36 186.71 65.36 186.96 65.61 187.21 65.61 187.46 65.86 187.46 65.86 187.71 66.11 187.96 66.36 188.21 66.36 188.46 66.61 188.71 66.61 188.96 66.86 189.21 67.11 189.46 67.36 189.71 67.36 189.96 67.61 189.96 67.86 190.21 68.11 190.46 68.11 190.71 68.36 190.96 68.61 191.21 68.86 191.46 69.11 191.46 69.36 191.71 69.61 191.96 69.86 192.21 70.11 192.46 70.36 192.71 70.61 192.96 71.11 193.21 71.36 193.46 71.61 193.46 71.86 193.71 72.11 193.96 72.36 194.21 72.61 194.21 72.86 194.46 73.11 194.71 73.61 194.71 73.86 194.96 74.11 195.21 74.36 195.46 74.61 195.46 75.11 195.71 75.36 195.96 75.61 195.96 76.11 196.21 76.36 196.21 76.61 196.46 76.86 196.71 77.36 196.71 77.61 196.96 78.11 196.96 78.36 197.21 78.61 197.46 79.11 197.46 79.36 197.71 79.86 197.71 80.11 197.96 80.61 197.96 80.86 198.21 81.36 198.21 81.61 198.46 82.11 198.46 82.36 198.71 82.86 198.71 83.11 198.96 83.61 198.96 83.86 198.96 84.36 199.21 84.61 199.21 85.11 199.46 85.61 199.46 85.86 199.46 86.36 199.71 86.61 199.71 87.11 199.71 87.61 199.96 87.86 199.96 88.36 199.96 88.86 200.21 89.11 200.21 89.61 200.21 90.11 200.21 90.36 200.46 90.86 200.46 91.36 200.46 91.61 200.46 92.11 200.46 92.61 200.71 93.11 200.71 93.36 200.71 93.86 200.71 94.36 200.71 94.61 200.71 95.11 200.71 95.61 200.71 96.11 200.71 96.36 200.96 96.86 200.96 97.36 200.96 97.85 200.96 98.1 200.96 98.6 200.96 99.1 200.96 99.35 200.96 99.85 200.96 100.35 200.96 100.85 200.71 101.1 200.71 101.6 200.71 102.1 200.71 102.6 200.71 102.85 200.71 103.35 200.71 103.85 200.71 104.35 200.71 104.6 200.46 105.1 200.46 105.6 200.46 105.85 200.46 106.35 200.46 106.85 200.21 107.35 200.21 107.6 200.21 108.1 200.21 108.6 199.96 108.85 199.96 109.35 199.96 109.85 199.71 110.1 199.71 110.6 199.71 111.1 199.46 111.35 199.46 111.85 199.46 112.35 199.21 112.6 199.21 113.1 198.96 113.35 198.96 113.85 198.96 114.35 198.71 114.6 198.71 115.1 198.46 115.35 198.46 115.85 198.21 116.1 198.21 116.6 197.96 116.85 197.96 117.35 197.71 117.6 197.71 118.1 197.46 118.35 197.46 118.85 197.21 119.1 196.96 119.6 196.96 119.85 196.71 120.35 196.71 120.6 196.46 120.85 196.21 121.35 196.21 121.6 195.96 121.85 195.71 122.35 195.71 122.6 195.46 122.85 195.21 123.35 195.21 123.6 194.96 123.85 194.71 124.35 194.46 124.6 194.46 124.85 194.21 125.1 193.96 125.35 193.71 125.85 193.71 126.1 193.46 126.35 193.21 126.6 192.96 126.85 192.71 127.1 192.71 127.35 192.46 127.6 192.21 127.85 191.96 128.1 191.71 128.35 191.71 128.6 191.46 128.85 191.21 129.1 190.96 129.35 190.71 129.6 190.46 129.85 190.21 130.1 189.96 130.35 189.96 130.6 189.71 130.85 189.46 130.85 189.21 131.1 188.96 131.35 188.71 131.6 188.46 131.6 188.21 131.85 187.96 132.1 187.71 132.35 187.46 132.35 187.21 132.6 186.96 132.6 186.71 132.85 186.46 133.1 186.21 133.1 185.96 133.35 185.71 133.35 185.46 133.6 185.21 133.6 184.96 133.85 184.71 133.85 184.46 134.1 184.21 134.1 183.96 134.1 183.71 134.35 183.46 134.35 183.21 134.35 182.96 134.6 182.71 134.6 182.46 134.6 182.21 134.6 181.96 134.85 181.71 134.85 181.46 134.85 181.21 134.85 180.96 134.85 180.71 134.85 180.46 134.85 180.21 134.85 179.96 134.85 179.71"/><line class="c" x1="134.85" y1="179.71" x2="134.85" y2="179.46"/><polyline class="c" points="133.1 189.71 133.35 189.46 133.6 189.21 133.6 188.96 133.6 188.71 133.85 188.71 133.85 188.46 133.85 188.21 134.1 187.96 134.1 187.71 134.35 187.46 134.35 187.21 134.35 186.96 134.35 186.71 134.6 186.46 134.6 186.21 134.6 185.96 134.6 185.71 134.85 185.46 134.85 185.21 134.85 184.96 134.85 184.71 134.85 184.46 134.85 184.21 134.85 183.96 134.85 183.71 134.85 183.46 134.85 183.21"/><polyline class="c" points="64.11 185.21 64.11 185.46 64.11 185.96 64.11 186.21 64.11 186.71 64.11 186.96 64.11 187.46 64.36 187.71 64.36 187.96"/><line class="c" x1="134.85" y1="187.46" x2="134.85" y2="187.21"/><polyline class="c" points="124.1 194.71 123.6 194.96 123.35 195.21 123.1 195.21 122.85 195.46 122.6 195.71 122.1 195.96 121.85 195.96 121.6 196.21 121.1 196.46 120.85 196.46 120.6 196.71 120.1 196.96 119.85 196.96 119.6 197.21 119.1 197.46 118.85 197.46 118.35 197.71 118.1 197.96 117.6 197.96 117.35 198.21 116.85 198.21 116.6 198.46 116.1 198.71 115.85 198.71 115.35 198.96 115.1 198.96 114.6 199.21 114.1 199.21 113.85 199.46 113.35 199.46 113.1 199.71 112.6 199.71 112.1 199.96 111.85 199.96 111.35 199.96 110.85 200.21 110.6 200.21 110.1 200.46 109.6 200.46 109.35 200.46 108.85 200.71 108.35 200.71 107.85 200.71 107.6 200.71 107.1 200.96 106.6 200.96 106.35 200.96 105.85 200.96 105.35 201.21 104.85 201.21 104.6 201.21 104.1 201.21 103.6 201.21 103.1 201.46 102.85 201.46 102.35 201.46 101.85 201.46 101.35 201.46 101.1 201.46 100.6 201.46 100.1 201.46 99.6 201.46 99.1 201.46 98.85 201.46 98.35 201.46 97.85 201.46 97.36 201.46 97.11 201.46 96.61 201.46 96.11 201.46 95.61 201.46 95.11 201.46 94.86 201.46 94.36 201.46 93.86 201.46 93.36 201.46 93.11 201.21 92.61 201.21 92.11 201.21 91.61 201.21 91.36 201.21 90.86 200.96 90.36 200.96 89.86 200.96 89.61 200.96 89.11 200.71 88.61 200.71 88.36 200.71 87.86 200.46 87.36 200.46 87.11 200.46 86.61 200.21 86.11 200.21 85.86 200.21 85.36 199.96 85.11 199.96 84.61 199.71 84.36 199.71 83.86 199.46 83.36 199.46 83.11 199.46 82.61 199.21 82.36 199.21 81.86 198.96 81.61 198.96 81.11 198.71 80.86 198.46 80.61 198.46 80.11 198.21 79.86 198.21 79.36 197.96 79.11 197.96 78.61 197.71 78.36 197.46 78.11 197.46 77.61 197.21 77.36 196.96 77.11 196.96 76.61 196.71 76.36 196.46 76.11 196.46 75.86 196.21 75.36 195.96 75.11 195.96 74.86 195.71 74.61 195.46 74.36 195.21 73.86 195.21"/><polyline class="c" points="74.61 163.97 75.11 163.72 75.36 163.47 75.86 163.22 76.11 163.22 76.36 162.97 76.86 162.72 77.11 162.72 77.61 162.47"/><path class="c" d="M75,163.84s0,0-.07,0"/><line class="c" x1="134.85" y1="178.96" x2="134.85" y2="179.46"/><line class="c" x1="134.85" y1="182.71" x2="134.85" y2="183.21"/><line class="c" x1="134.85" y1="186.71" x2="134.85" y2="187.21"/><line class="c" x1="64.11" y1="178.96" x2="64.11" y2="181.46"/><line class="c" x1="64.11" y1="184.71" x2="64.11" y2="185.21"/><polyline class="c" points="130.1 179.96 130.1 180.21 130.1 180.46 130.1 180.71 130.1 180.96 130.1 181.21 130.1 181.46 130.1 181.71 130.1 181.96 129.85 182.21 129.85 182.46 129.85 182.71 129.6 182.96 129.6 183.21 129.6 183.46 129.35 183.71 129.35 183.96 129.1 184.21 129.1 184.46 128.85 184.46 128.85 184.71 128.85 184.96 128.6 185.21 128.35 185.46 128.35 185.71 128.1 185.96 127.85 186.21 127.6 186.46 127.35 186.71 127.35 186.96 127.1 187.21 126.85 187.21 126.85 187.46 126.6 187.71 126.35 187.96 126.1 188.21 125.85 188.46 125.6 188.46 125.35 188.71 125.35 188.96 125.1 188.96 124.85 189.21 124.6 189.46 124.35 189.71 124.1 189.71 123.85 189.96 123.6 190.21 123.35 190.21 123.35 190.46 123.1 190.46 122.85 190.71 122.6 190.96 122.35 190.96 121.85 191.21 121.6 191.46 121.35 191.46 121.1 191.71 120.85 191.71 120.6 191.96 120.35 192.21 120.1 192.21 119.85 192.46 119.35 192.46 119.1 192.71 118.85 192.71 118.6 192.96 118.35 192.96 117.85 193.21 117.6 193.46 117.35 193.46 117.1 193.71 116.6 193.71 116.35 193.71 116.1 193.96 115.6 193.96 115.35 194.21 115.1 194.21 114.6 194.46 114.35 194.46 114.1 194.71 113.6 194.71 113.35 194.71 113.1 194.96 112.6 194.96 112.35 194.96 111.85 195.21 111.6 195.21 111.35 195.46 110.85 195.46 110.6 195.46 110.1 195.46 109.85 195.71 109.35 195.71 109.1 195.71 108.6 195.96 108.35 195.96 107.85 195.96 107.6 195.96 107.1 196.21 106.85 196.21 106.35 196.21 106.1 196.21 105.6 196.21 105.35 196.46 104.85 196.46 104.6 196.46 104.1 196.46 103.85 196.46 103.35 196.46 102.85 196.46 102.6 196.46 102.1 196.46 101.85 196.71 101.35 196.71 101.1 196.71 100.6 196.71 100.35 196.71 99.85 196.71 99.35 196.71 99.1 196.71 98.6 196.71 98.35 196.71 97.85 196.71 97.61 196.71 97.11 196.71 96.86 196.46 96.36 196.46 96.11 196.46 95.61 196.46 95.11 196.46 94.86 196.46 94.36 196.46 94.11 196.46 93.61 196.46 93.36 196.21 92.86 196.21 92.61 196.21 92.11 196.21 91.86 196.21 91.36 195.96 91.11 195.96 90.61 195.96 90.36 195.96 89.86 195.71 89.61 195.71 89.11 195.71 88.86 195.46 88.36 195.46 88.11 195.46 87.61 195.46 87.36 195.21 87.11 195.21 86.61 194.96 86.36 194.96 85.86 194.96 85.61 194.71 85.36 194.71 84.86 194.71 84.61 194.46 84.36 194.46 83.86 194.21 83.61 194.21 83.36 193.96 82.86 193.96 82.61 193.71 82.36 193.71 81.86 193.71 81.61 193.46 81.36 193.46 81.11 193.21 80.61 192.96 80.36 192.96 80.11 192.71 79.86 192.71 79.61 192.46 79.11 192.46 78.86 192.21 78.61 192.21 78.36 191.96 78.11 191.71 77.86 191.71 77.61 191.46 77.36 191.46 77.11 191.21 76.61 190.96 76.36 190.96 76.11 190.71 75.86 190.46 75.61 190.46 75.61 190.21 75.36 190.21 75.11 189.96 74.86 189.71 74.61 189.71 74.36 189.46 74.11 189.21 73.86 188.96 73.61 188.96 73.61 188.71 73.36 188.46 73.11 188.46 72.86 188.21 72.61 187.96 72.36 187.71 72.11 187.46 72.11 187.21 71.86 187.21 71.61 186.96 71.61 186.71 71.36 186.46 71.11 186.21 70.86 185.96 70.61 185.71 70.61 185.46 70.36 185.21 70.11 184.96 70.11 184.71 70.11 184.46 69.86 184.46 69.86 184.21 69.61 183.96 69.61 183.71 69.36 183.46 69.36 183.21 69.36 182.96 69.11 182.71 69.11 182.46 69.11 182.21 68.86 181.96 68.86 181.71 68.86 181.46 68.86 181.21 68.86 180.96 68.86 180.71 68.86 180.46 68.86 180.21"/><line class="c" x1="68.86" y1="180.21" x2="68.86" y2="179.96"/><polyline class="c" points="64.11 178.96 64.11 178.71 64.11 178.46 64.11 178.21 64.11 177.96 64.11 177.71 64.11 177.46 64.11 176.96 64.11 176.71 64.36 176.46 64.36 176.21 64.36 175.96 64.36 175.71 64.61 175.46 64.61 175.21 64.61 174.96 64.86 174.71 64.86 174.46 64.86 174.21 65.11 173.96 65.11 173.71 65.36 173.46 65.36 173.21 65.61 172.96 65.61 172.71 65.86 172.46 65.86 172.21 66.11 171.96 66.11 171.71 66.36 171.46 66.61 171.21 66.61 170.96 66.86 170.71 67.11 170.46 67.11 170.21 67.36 169.97 67.61 169.72 67.86 169.47 67.86 169.22 68.11 168.97 68.36 168.72 68.61 168.72 68.86 168.47 69.11 168.22 69.36 167.97 69.36 167.72 69.61 167.47 69.86 167.22 70.11 166.97 70.36 166.97 70.61 166.72 70.86 166.47 71.11 166.22 71.36 165.97 71.86 165.72 72.11 165.72 72.36 165.47 72.61 165.22 72.86 164.97 73.11 164.97 73.36 164.72 73.86 164.47 74.11 164.22 74.36 164.22 74.61 163.97"/><polyline class="c" points="77.61 162.47 77.86 162.22 78.36 162.22 78.61 161.97 79.11 161.72 79.36 161.72 79.86 161.47 80.11 161.22 80.61 161.22 81.11 160.97 81.36 160.97 81.86 160.72 82.11 160.72 82.61 160.47 83.11 160.47 83.36 160.22 83.86 160.22 84.36 159.97 84.61 159.97 85.11 159.72 85.61 159.72 86.11 159.47 86.36 159.47 86.86 159.22 87.36 159.22 87.86 159.22 88.11 158.97 88.61 158.97 89.11 158.97 89.61 158.72 89.86 158.72 90.36 158.72 90.86 158.72"/><polyline class="c" points="107.6 158.47 107.85 158.47 108.35 158.72 108.6 158.72 109.1 158.72 109.35 158.72 109.6 158.97 110.1 158.97 110.35 158.97 110.85 158.97 111.1 159.22 111.35 159.22 111.85 159.22 112.1 159.47 112.35 159.47 112.85 159.47 113.1 159.47 113.35 159.72 113.85 159.72 114.1 159.72 114.35 159.97 114.85 159.97 115.1 160.22 115.35 160.22 115.85 160.22 116.1 160.47 116.35 160.47 116.85 160.72 117.1 160.72 117.35 160.72 117.6 160.97 118.1 160.97 118.35 161.22 118.6 161.22 118.85 161.47 119.35 161.47 119.6 161.72 119.85 161.72 120.1 161.97 120.35 161.97 120.85 162.22 121.1 162.22 121.35 162.47 121.6 162.47 121.85 162.72 122.1 162.72 122.35 162.97 122.85 162.97 123.1 163.22 123.35 163.47 123.6 163.47 123.85 163.72 124.1 163.72 124.35 163.97 124.6 164.22 124.85 164.22 125.1 164.47 125.35 164.47 125.6 164.72 125.85 164.97 126.1 164.97 126.35 165.22 126.6 165.47 126.85 165.47 127.1 165.72 127.35 165.97 127.6 165.97 127.85 166.22 128.1 166.47 128.1 166.72 128.35 166.72 128.6 166.97 128.85 167.22 129.1 167.22 129.35 167.47 129.35 167.72 129.6 167.97 129.85 167.97 130.1 168.22 130.1 168.47 130.35 168.72 130.6 168.72 130.85 168.97 130.85 169.22 131.1 169.47 131.35 169.72 131.6 169.97 131.85 170.21 131.85 170.46 132.1 170.71 132.35 170.96 132.6 171.21 132.6 171.46 132.85 171.71 132.85 171.96 133.1 171.96 133.1 172.21 133.35 172.46 133.35 172.71 133.35 172.96 133.6 173.21 133.6 173.46 133.85 173.46 133.85 173.71 133.85 173.96 134.1 174.21 134.1 174.46 134.1 174.71 134.35 174.96 134.35 175.21 134.6 175.46 134.6 175.71 134.6 175.96 134.6 176.21 134.6 176.46 134.85 176.71 134.85 176.96 134.85 177.21 134.85 177.46 134.85 177.71 134.85 177.96 134.85 178.21 134.85 178.46 134.85 178.71 134.85 178.96"/><polyline class="c" points="108.1 178.21 108.35 177.96 108.35 177.71 108.6 177.71 108.6 177.46 108.6 177.21 108.85 176.96 108.85 176.71 108.85 176.46 108.85 176.21 108.85 175.96"/><polyline class="c" points="90.11 175.96 90.11 176.21 90.11 176.46 90.11 176.71 90.11 176.96 90.36 177.21 90.36 177.46 90.36 177.71 90.61 177.71 90.61 177.96 90.86 178.21"/><polyline class="c" points="90.86 178.21 90.86 178.46 91.11 178.46 91.11 178.71 91.36 178.71 91.36 178.96 91.61 178.96 91.86 179.21 92.11 179.46 92.36 179.71 92.61 179.71 92.86 179.96"/><polyline class="c" points="92.86 179.96 93.11 179.96 93.36 180.21 93.61 180.21 93.61 180.46 93.86 180.46 94.11 180.46 94.36 180.46 94.36 180.71 94.61 180.71 94.86 180.71 95.11 180.96 95.36 180.96 95.61 180.96 95.86 180.96"/><polyline class="c" points="95.86 180.96 96.11 181.21 96.36 181.21 96.61 181.21 96.86 181.21 97.11 181.21 97.36 181.46 97.61 181.46 97.85 181.46 98.1 181.46 98.35 181.46 98.6 181.46 98.85 181.46 99.1 181.46 99.35 181.46 99.6 181.46"/><polyline class="c" points="99.6 181.46 99.85 181.46 100.1 181.46 100.35 181.46 100.6 181.46 100.85 181.46 101.1 181.46 101.35 181.46 101.6 181.46 101.85 181.21 102.1 181.21 102.35 181.21 102.6 181.21 102.85 181.21 103.1 180.96"/><polyline class="c" points="103.1 180.96 103.35 180.96 103.6 180.96 103.85 180.96 104.1 180.71 104.35 180.71 104.6 180.71 104.6 180.46 104.85 180.46 105.1 180.46 105.35 180.46 105.35 180.21 105.6 180.21 105.85 179.96 106.1 179.96"/><polyline class="c" points="106.1 179.96 106.35 179.71 106.6 179.71 106.85 179.46 107.1 179.21 107.35 178.96 107.6 178.96 107.6 178.71 107.85 178.71 107.85 178.46 108.1 178.46 108.1 178.21"/><polyline class="c" points="92.61 148.72 92.86 148.72 93.11 148.72 93.36 148.72 93.61 148.72 93.86 148.72 93.86 148.97 94.11 148.97 94.36 148.97"/><polyline class="c" points="94.36 148.97 94.61 148.97 94.86 148.97 95.11 148.97 95.36 149.22 95.61 149.22 96.11 149.22 96.36 149.22 96.61 149.47"/><polyline class="c" points="102.35 152.22 102.6 152.47 102.85 152.72 103.1 152.72 103.35 152.97"/><polyline class="c" points="103.35 152.97 103.85 153.22 104.1 153.47 104.35 153.72 104.6 153.97 104.85 154.22 104.85 154.47 105.1 154.47 105.1 154.72 105.35 154.97 105.6 154.97 105.6 155.22 105.85 155.47"/><polyline class="c" points="92.11 148.97 92.36 148.97 92.36 148.72 92.61 148.72"/><polyline class="c" points="107.85 162.72 108.1 162.72 108.1 162.97 108.1 163.22 108.35 163.47 108.35 163.72 108.35 163.97 108.35 164.22 108.6 164.47 108.6 164.72 108.6 164.97 108.6 165.22 108.6 165.72 108.6 165.97 108.6 166.22 108.85 166.72 108.85 166.97 108.85 167.22 108.85 167.72 108.85 167.97 108.85 168.47 108.85 168.72 108.85 169.22 108.85 169.47 108.85 169.72 108.85 170.46 108.85 171.21 108.85 171.96 108.85 172.71 108.85 173.46 108.85 174.21"/><polyline class="c" points="108.85 174.21 108.85 175.21 108.85 175.96"/><polyline class="c" points="105.85 155.47 106.1 155.72 106.1 155.97 106.35 156.22 106.6 156.47 106.6 156.72 106.85 156.97 106.85 157.22 107.1 157.47 107.1 157.72 107.35 157.72 107.35 157.97 107.35 158.22 107.6 158.22 107.6 158.47 107.6 158.72 107.6 158.97 107.85 159.22 107.85 159.47 107.85 159.72 107.85 159.97 107.85 160.22 107.85 160.47 107.85 160.72 107.85 161.22 107.85 161.47 107.85 161.72 107.85 161.97 107.85 162.22 107.85 162.47 107.85 162.72 107.85 162.97 107.85 163.22 107.85 163.47 107.85 163.72 107.85 163.97"/><polyline class="c" points="90.11 175.96 90.11 175.21 90.11 174.46 90.11 173.71 90.11 172.96 90.11 172.46 90.11 172.21 90.11 171.71 90.11 171.21 90.11 170.96 90.11 170.46 90.11 169.97 90.11 169.72 90.11 169.22 90.11 168.72 90.11 168.47 90.11 167.97 90.11 167.47 90.11 166.97 90.11 166.72 90.11 166.22 90.11 165.97 90.11 165.72 90.36 165.47 90.36 165.22 90.36 164.97 90.36 164.72 90.36 164.47 90.36 164.22 90.36 163.97 90.36 163.72 90.36 163.47 90.36 163.22 90.36 162.97 90.36 162.72 90.36 162.47 90.36 162.22 90.61 161.97 90.61 161.72 90.61 161.47 90.61 161.22 90.61 160.97 90.61 160.72 90.61 160.47 90.61 160.22 90.86 159.97 90.86 159.72 90.86 159.47 90.86 159.22 90.86 158.97 90.86 158.72 90.86 158.22 90.86 157.72 91.11 157.22 91.11 156.97 91.11 156.72 91.11 156.47 91.11 156.22 91.11 155.97 91.11 155.72 91.11 155.47 91.11 155.22 91.11 154.97 91.11 154.72 91.11 154.47 91.11 154.22 91.11 153.97 91.11 153.72 91.11 153.47 91.11 153.22 91.11 152.72 91.11 152.47 91.11 151.97 91.11 151.72 91.11 151.47 91.11 151.22 91.11 150.97 91.11 150.72 91.11 150.47 91.11 150.22 91.36 149.97 91.36 149.72 91.36 149.47 91.61 149.47 91.61 149.22 91.86 149.22 91.86 148.97 92.11 148.97"/><path class="c" d="M95.58,32.73c-2.3,1.32-2.3,3.46,0,4.77a9.19,9.19,0,0,0,8.3,0c2.3-1.31,2.3-3.45,0-4.77a9.19,9.19,0,0,0-8.3,0"/><path class="c" d="M93.61,37.12a2.23,2.23,0,0,0,.47,1.33"/><path class="c" d="M95.2,39.43a8.06,8.06,0,0,0,3.57,1"/><path class="c" d="M100.18,40.47a8.1,8.1,0,0,0,3.58-1"/><path class="c" d="M104.87,38.45a2.17,2.17,0,0,0,.48-1.33"/><line class="c" x1="93.61" y1="37.24" x2="93.61" y2="36.99"/><line class="c" x1="105.35" y1="37.24" x2="105.35" y2="36.99"/><line class="c" x1="105.35" y1="35.49" x2="105.35" y2="35.24"/><path class="c" d="M105.12,140.68a2.17,2.17,0,0,0,.48-1.33"/><path class="c" d="M100.43,142.7a8.23,8.23,0,0,0,3.58-1"/><path class="c" d="M95.45,141.66a8.19,8.19,0,0,0,3.57,1"/><path class="c" d="M93.86,139.35a2.25,2.25,0,0,0,.47,1.33"/><path class="c" d="M96.54,134.42c-2.3.77-3.42,2.32-2.73,3.8s3,2.5,5.67,2.5,5-1,5.67-2.5-.43-3-2.73-3.8"/><path class="c" d="M117,45.82a1,1,0,0,0-.44.77c0,.28.21.4.46.26a.93.93,0,0,0,.44-.76.28.28,0,0,0-.46-.27"/><line class="c" x1="104.1" y1="37.99" x2="117.35" y2="45.74"/><line class="c" x1="103.35" y1="39.24" x2="116.6" y2="46.99"/><polyline class="c" points="124.35 35.49 124.35 35.74 124.35 36.24 124.35 36.74 124.35 36.99"/><line class="c" x1="124.35" y1="35.49" x2="105.35" y2="35.49"/><line class="c" x1="105.35" y1="36.99" x2="124.35" y2="36.99"/><path class="c" d="M117.54,26.41c.18-.1.18-.43,0-.73s-.46-.45-.64-.35"/><line class="c" x1="103.85" y1="32.99" x2="116.91" y2="25.33"/><line class="c" x1="104.85" y1="33.74" x2="117.54" y2="26.41"/><path class="c" d="M100.1,21.81a.63.63,0,1,0-1.25,0"/><line class="c" x1="98.85" y1="31.74" x2="98.85" y2="21.75"/><line class="c" x1="100.1" y1="31.74" x2="100.1" y2="21.75"/><path class="c" d="M82.36,25.49c-.18-.1-.53.23-.7.53s-.17.63,0,.73"/><line class="c" x1="94.11" y1="33.74" x2="81.61" y2="26.74"/><line class="c" x1="95.11" y1="32.99" x2="82.36" y2="25.49"/><polyline class="c" points="74.61 36.99 74.61 36.74 74.61 36.24 74.61 35.74 74.61 35.49"/><line class="c" x1="93.61" y1="36.99" x2="74.61" y2="36.99"/><line class="c" x1="93.61" y1="35.49" x2="74.61" y2="35.49"/><path class="c" d="M82.59,46.49a.9.9,0,0,0-.38-.75c-.25-.14-.67,0-.68.32a1.39,1.39,0,0,0,.6.9c.25.14.45-.18.46-.47"/><line class="c" x1="95.6" y1="39.24" x2="82.36" y2="46.99"/><line class="c" x1="94.86" y1="37.99" x2="81.61" y2="45.74"/><path class="c" d="M99.48,49.74a.63.63,0,1,0,.62.62.63.63,0,0,0-.62-.62"/><line class="c" x1="100.1" y1="39.49" x2="100.1" y2="50.49"/><line class="c" x1="98.85" y1="39.49" x2="98.85" y2="50.49"/><path class="c" d="M116.92,148a1,1,0,0,0-.44.76c0,.29.21.41.46.27a.93.93,0,0,0,.44-.77c0-.28-.21-.4-.46-.26"/><line class="c" x1="104.1" y1="140.22" x2="117.22" y2="147.83"/><line class="c" x1="103.35" y1="141.47" x2="116.6" y2="149.22"/><polyline class="c" points="74.61 139.22 74.61 138.97 74.61 138.47 74.61 137.97 74.61 137.72"/><line class="c" x1="93.61" y1="139.22" x2="74.61" y2="139.22"/><line class="c" x1="93.61" y1="137.72" x2="74.61" y2="137.72"/><polyline class="c" points="124.35 137.72 124.35 137.97 124.35 138.47 124.35 138.97 124.35 139.22"/><line class="c" x1="105.35" y1="137.72" x2="124.35" y2="137.72"/><line class="c" x1="105.35" y1="139.22" x2="124.35" y2="139.22"/><path class="c" d="M117.54,128.64c.18-.1.18-.43,0-.73s-.46-.46-.64-.35"/><line class="c" x1="103.85" y1="135.22" x2="116.91" y2="127.56"/><line class="c" x1="104.85" y1="136.22" x2="117.54" y2="128.64"/><path class="c" d="M82.37,127.9c-.18-.1-.46.06-.64.35s-.16.63,0,.73"/><line class="d" x1="82.86" y1="127.97" x2="82.86" y2="127.97"/><line class="c" x1="94.11" y1="136.22" x2="81.61" y2="128.97"/><line class="c" x1="95.11" y1="135.22" x2="82.53" y2="127.78"/><path class="c" d="M82.56,148.83a1,1,0,0,0-.44-.77c-.25-.13-.46,0-.46.27a.91.91,0,0,0,.44.76.28.28,0,0,0,.46-.26"/><line class="d" x1="82.86" y1="147.72" x2="82.86" y2="147.72"/><line class="c" x1="95.6" y1="141.47" x2="82.36" y2="149.22"/><line class="c" x1="94.86" y1="140.22" x2="81.66" y2="147.88"/><path class="c" d="M99.48,152a.63.63,0,1,0,.62.62.63.63,0,0,0-.62-.62"/><line class="c" x1="100.1" y1="141.72" x2="100.1" y2="152.72"/><line class="c" x1="98.85" y1="141.72" x2="98.85" y2="152.72"/><line class="c" x1="102.35" y1="39.99" x2="102.35" y2="137.47"/><line class="c" x1="102.35" y1="142.47" x2="102.35" y2="152.22"/><line class="c" x1="96.6" y1="39.99" x2="96.6" y2="137.47"/><line class="c" x1="96.6" y1="142.47" x2="96.6" y2="152.22"/><polygon class="e" points="99.48 50.37 116.93 148.54 124.08 35.65 117.17 128.22 99.48 22 82.31 128.52 75.61 35.74 82.11 148.54 99.48 50.37"/><polygon class="f" points="99.48 152.59 117.11 46.27 124.35 138.47 116.99 26 99.7 123.49 82.34 26.34 74.61 138.47 81.95 46.34 99.48 152.59"/><ellipse class="g" cx="99.73" cy="35.1" rx="5.87" ry="3.35"/><rect class="a" x="96.71" y="103.47" width="5.53" height="24.4"/><rect class="a" x="75.37" y="35.58" width="15.58" height="1.31"/><rect class="a" x="113.43" y="35.58" width="10.77" height="1.31"/><rect class="a" x="98.96" y="21.81" width="1.02" height="8.89"/><polygon class="a" points="82.75 25.99 82.36 25.62 81.67 26.63 83.08 27.45 83.39 26.63 82.75 25.99"/><path class="a" d="M117,25.62s.38.66.3.79a4.46,4.46,0,0,1-.91.5l-.3-.5Z"/><path class="a" d="M97.73,40.09s-1.32,0-1.67-.49.21-1.47.21-1.47,1.14-.15,1.19.79S97.73,40.09,97.73,40.09Z"/><polygon class="a" points="101.82 39.62 101.79 38.38 102.77 38.1 102.82 39.78 102 40.05 101.82 39.62"/></svg>